<svg width="25" height="26" viewBox="0 0 25 26" fill="none" xmlns="http://www.w3.org/2000/svg">
<path d="M16.3884 19.6667H23.055L21.1817 17.7933C20.9301 17.5417 20.7306 17.243 20.5945 16.9142C20.4584 16.5855 20.3883 16.2331 20.3884 15.8773V11.6667C20.3886 10.0119 19.8758 8.39779 18.9207 7.04652C17.9656 5.69525 16.615 4.67329 15.055 4.12133V3.66667C15.055 2.95942 14.7741 2.28115 14.274 1.78105C13.7739 1.28095 13.0956 1 12.3884 1C11.6811 1 11.0029 1.28095 10.5028 1.78105C10.0027 2.28115 9.72171 2.95942 9.72171 3.66667V4.12133C6.61504 5.22 4.38838 8.184 4.38838 11.6667V15.8787C4.38838 16.596 4.10304 17.2853 3.59504 17.7933L1.72171 19.6667H8.38838M16.3884 19.6667V21C16.3884 22.0609 15.967 23.0783 15.2168 23.8284C14.4667 24.5786 13.4492 25 12.3884 25C11.3275 25 10.3101 24.5786 9.55995 23.8284C8.8098 23.0783 8.38838 22.0609 8.38838 21V19.6667M16.3884 19.6667H8.38838" stroke="#004D99" strokeWidth="2" strokeLinecap="round" strokeLinejoin="round"/>
</svg>
