<svg id="calendar_1_" data-name="calendar (1)" xmlns="http://www.w3.org/2000/svg" width="13.793" height="13.793" viewBox="0 0 13.793 13.793">
  <path id="Path_7501" data-name="Path 7501" d="M10.919,1.149h-.575V.575A.575.575,0,0,0,9.2.575v.575H4.6V.575a.575.575,0,0,0-1.149,0v.575H2.874A2.877,2.877,0,0,0,0,4.023v6.9a2.877,2.877,0,0,0,2.874,2.874h8.046a2.877,2.877,0,0,0,2.874-2.874v-6.9A2.877,2.877,0,0,0,10.919,1.149ZM1.149,4.023A1.724,1.724,0,0,1,2.874,2.3h8.046a1.724,1.724,0,0,1,1.724,1.724V4.6H1.149Zm9.77,8.621H2.874a1.724,1.724,0,0,1-1.724-1.724V5.747H12.644v5.172A1.724,1.724,0,0,1,10.919,12.644Z" fill="#384455"/>
  <circle id="Ellipse_3" data-name="Ellipse 3" cx="0.862" cy="0.862" r="0.862" transform="translate(6.034 7.759)" fill="#384455"/>
  <circle id="Ellipse_4" data-name="Ellipse 4" cx="0.862" cy="0.862" r="0.862" transform="translate(3.161 7.759)" fill="#384455"/>
  <circle id="Ellipse_5" data-name="Ellipse 5" cx="0.862" cy="0.862" r="0.862" transform="translate(8.908 7.759)" fill="#384455"/>
</svg>
