<svg width="18" height="18" viewBox="0 0 18 18" fill="none" xmlns="http://www.w3.org/2000/svg">
<path d="M7.5 8.25V6L11.25 9L7.5 12V9.75H0.75V8.25H7.5ZM1.8435 11.25H3.4365C3.96003 12.5393 4.91528 13.6067 6.13884 14.2695C7.36239 14.9323 8.77823 15.1493 10.1442 14.8836C11.5101 14.6178 12.7412 13.8857 13.627 12.8124C14.5128 11.7392 14.9981 10.3915 15 9C15.0008 7.607 14.5168 6.25712 13.6312 5.18192C12.7455 4.10671 11.5133 3.37317 10.146 3.10711C8.77861 2.84105 7.36128 3.05906 6.13708 3.72373C4.91288 4.38841 3.9581 5.45834 3.4365 6.75H1.8435C2.799 3.70725 5.6415 1.5 9 1.5C13.1423 1.5 16.5 4.85775 16.5 9C16.5 13.1423 13.1423 16.5 9 16.5C5.6415 16.5 2.799 14.2928 1.8435 11.25Z" fill="white"/>
</svg>
