<svg width="13" height="16" viewBox="0 0 13 16" fill="none" xmlns="http://www.w3.org/2000/svg">
<path d="M6.8125 13.25H6.625C4.85 13.25 3.34375 12.6312 2.10625 11.3937C0.86875 10.1562 0.25 8.65 0.25 6.875C0.25 5.1 0.86875 3.59375 2.10625 2.35625C3.34375 1.11875 4.85 0.5 6.625 0.5C7.5125 0.5 8.34075 0.6655 9.10975 0.9965C9.87875 1.3275 10.5538 1.78375 11.1348 2.36525C11.7158 2.94675 12.1718 3.62175 12.5028 4.39025C12.8337 5.15875 12.9995 5.987 13 6.875C13 8.55 12.528 10.1063 11.584 11.5438C10.64 12.9812 9.4495 14.1062 8.0125 14.9188C7.8875 14.9813 7.7625 15.0158 7.6375 15.0223C7.5125 15.0288 7.4 15.0005 7.3 14.9375C7.2 14.875 7.1125 14.7937 7.0375 14.6937C6.9625 14.5937 6.91875 14.475 6.90625 14.3375L6.8125 13.25ZM8.5 12.7625C9.3875 12.0125 10.1095 11.1345 10.666 10.1285C11.2225 9.1225 11.5005 8.038 11.5 6.875C11.5 5.5125 11.028 4.3595 10.084 3.416C9.14 2.4725 7.987 2.0005 6.625 2C5.2625 2 4.1095 2.472 3.166 3.416C2.2225 4.36 1.7505 5.513 1.75 6.875C1.75 8.2375 2.222 9.39075 3.166 10.3348C4.11 11.2787 5.263 11.7505 6.625 11.75H8.5V12.7625ZM6.60625 10.9813C6.81875 10.9813 7 10.9062 7.15 10.7563C7.3 10.6062 7.375 10.425 7.375 10.2125C7.375 10 7.3 9.81875 7.15 9.66875C7 9.51875 6.81875 9.44375 6.60625 9.44375C6.39375 9.44375 6.2125 9.51875 6.0625 9.66875C5.9125 9.81875 5.8375 10 5.8375 10.2125C5.8375 10.425 5.9125 10.6062 6.0625 10.7563C6.2125 10.9062 6.39375 10.9812 6.60625 10.9813ZM4.975 5.28125C5.1125 5.34375 5.25 5.347 5.3875 5.291C5.525 5.235 5.6375 5.14425 5.725 5.01875C5.8375 4.86875 5.96875 4.753 6.11875 4.6715C6.26875 4.59 6.4375 4.5495 6.625 4.55C6.925 4.55 7.16875 4.63425 7.35625 4.80275C7.54375 4.97125 7.6375 5.187 7.6375 5.45C7.6375 5.6125 7.59075 5.775 7.49725 5.9375C7.40375 6.1 7.238 6.3 7 6.5375C6.6875 6.8125 6.45625 7.072 6.30625 7.316C6.15625 7.56 6.08125 7.80675 6.08125 8.05625C6.08125 8.20625 6.1345 8.3345 6.241 8.441C6.3475 8.5475 6.4755 8.6005 6.625 8.6C6.775 8.6 6.9 8.54375 7 8.43125C7.1 8.31875 7.175 8.1875 7.225 8.0375C7.2875 7.825 7.4 7.63125 7.5625 7.45625C7.725 7.28125 7.875 7.125 8.0125 6.9875C8.275 6.725 8.472 6.4625 8.6035 6.2C8.735 5.9375 8.8005 5.675 8.8 5.4125C8.8 4.8375 8.603 4.375 8.209 4.025C7.815 3.675 7.287 3.5 6.625 3.5C6.225 3.5 5.85625 3.597 5.51875 3.791C5.18125 3.985 4.90625 4.2505 4.69375 4.5875C4.61875 4.725 4.60925 4.8595 4.66525 4.991C4.72125 5.1225 4.8245 5.21925 4.975 5.28125Z" fill="#004D99"/>
</svg>
